<?xml version="1.0" encoding="utf-8"?>
<!-- Generator: Adobe Illustrator 29.8.1, SVG Export Plug-In . SVG Version: 9.03 Build 0)  -->
<svg version="1.1" xmlns="http://www.w3.org/2000/svg" xmlns:xlink="http://www.w3.org/1999/xlink" x="0px" y="0px"
	 viewBox="0 0 1024 1024" style="enable-background:new 0 0 1024 1024;" xml:space="preserve">
<g>
</g>
<g id="Icon">
	<path style="fill:#FFFFFF;fill-opacity:0.85;" d="M289.5233459,568.2514038h436.4997253
		c57.621582,0,86.7660522-29.1445312,86.7660522-85.6543274V269.0198059c0-56.5091248-29.1444702-85.6536407-86.7660522-85.6536407
		H289.5233459c-57.3990021,0-86.5435181,28.6996002-86.5435181,85.6536407v213.5772705
		C202.9798279,539.5511475,232.1243439,568.2514038,289.5233459,568.2514038z M303.0943298,199.8295288h39.3785095v-49.3899231
		c0-11.7912903-8.0093384-19.8004456-19.578064-19.8004456c-11.7913208,0-19.8004456,8.0091553-19.8004456,19.8004456V199.8295288z
		 M395.6446838,199.8295288h39.3773499v-49.3899231c0-11.7912903-8.0082092-19.8004456-19.5769348-19.8004456
		c-11.7913208,0-19.800415,8.0091553-19.800415,19.8004456V199.8295288z M488.1943359,199.8295288h39.3780518v-49.3899231
		c0-11.7912903-8.0077515-19.8004456-19.79953-19.8004456c-11.5684814,0-19.5785217,8.0091553-19.5785217,19.8004456V199.8295288z
		 M580.7446899,199.8295288h39.3779907v-49.3899231c0-11.7912903-8.0076904-19.8004456-19.7994385-19.8004456
		c-11.5685425,0-19.5785522,8.0091553-19.5785522,19.8004456V199.8295288z M673.0740356,199.8295288h39.598999v-49.3899231
		c0-11.7912903-8.2310181-19.8004456-19.7994995-19.8004456c-11.791748,0-19.7994995,8.0091553-19.7994995,19.8004456V199.8295288z
		 M303.0943298,553.1221313v48.055542c0,11.5685425,8.0091248,19.7994995,19.8004456,19.7994995
		c11.5687256,0,19.578064-8.230957,19.578064-19.7994995v-48.055542H303.0943298z M395.6446838,553.1221313v48.055542
		c0,11.5685425,8.0090942,19.7994995,19.800415,19.7994995c11.5687256,0,19.5769348-8.230957,19.5769348-19.7994995v-48.055542
		H395.6446838z M488.1943359,553.1221313v48.055542c0,11.5685425,8.0100403,19.7994995,19.5785217,19.7994995
		c11.7917786,0,19.79953-8.230957,19.79953-19.7994995v-48.055542H488.1943359z M580.7446899,553.1221313v48.055542
		c0,11.5685425,8.0100098,19.7994995,19.5785522,19.7994995c11.791748,0,19.7994385-8.230957,19.7994385-19.7994995v-48.055542
		H580.7446899z M673.0740356,553.1221313v48.055542c0,11.5685425,8.0077515,19.7994995,19.7994995,19.7994995
		c11.5684814,0,19.7994995-8.230957,19.7994995-19.7994995v-48.055542H673.0740356z"/>
</g>
</svg>
