<?xml version="1.0" encoding="utf-8"?>
<!-- Generator: Adobe Illustrator 29.8.1, SVG Export Plug-In . SVG Version: 9.03 Build 0)  -->
<svg version="1.1" xmlns="http://www.w3.org/2000/svg" xmlns:xlink="http://www.w3.org/1999/xlink" x="0px" y="0px"
	 viewBox="0 0 1024 1024" style="enable-background:new 0 0 1024 1024;" xml:space="preserve">
<g>
</g>
<g id="Text">
	<g>
		<path style="fill:#FFFFFF;fill-opacity:0.85;" d="M160.4604492,897.8183594V721.6708984h114.9902344
			c17.3339844,0,31.7993164,2.2998047,43.3959961,6.8974609s20.3037109,11.2910156,26.1230469,20.0800781
			c5.8173828,8.7890625,8.7280273,19.53125,8.7280273,32.2265625v0.2441406c0,12.3710938-3.112793,23.03125-9.3383789,31.9824219
			c-6.2255859,8.953125-15.1176758,15.5029297-26.6723633,19.6533203l43.3349609,65.0634766h-68.4814453l-34.4238281-54.9316406
			c-0.4082031,0-0.8544922,0-1.3427734,0s-0.9365234,0-1.3427734,0h-33.8134766v54.9316406H160.4604492z M221.6176758,803.8242188
			h47.7294922c7.2421875,0,12.8974609-1.7890625,16.9677734-5.3710938
			c4.0683594-3.5800781,6.1035156-8.4628906,6.1035156-14.6484375v-0.2441406c0-6.265625-2.0751953-11.1884766-6.2255859-14.7705078
			c-4.1503906-3.5800781-9.765625-5.3710938-16.8457031-5.3710938h-47.7294922V803.8242188z"/>
		<path style="fill:#FFFFFF;fill-opacity:0.85;" d="M368.3461914,897.8183594l76.171875-176.1474609h60.0585938v44.7998047
			h-20.5078125l-51.1474609,131.3476562H368.3461914z M413.3901367,863.8828125l15.7470703-38.9404297h108.7641602
			l15.625,38.9404297H413.3901367z M536.1923828,897.8183594l-51.1469727-131.3476562v-44.7998047h39.4282227l76.171875,176.1474609
			H536.1923828z"/>
		<path style="fill:#FFFFFF;fill-opacity:0.85;" d="M617.125,897.8183594V721.6708984h72.5097656l52.1240234,110.4736328h0.8544922
			l52.1240234-110.4736328h72.6318359v176.1474609h-55.1757812V794.6689453h-22.3388672l38.6962891-39.4287109
			l-66.7724609,142.578125h-39.0625l-66.6503906-142.578125l38.5742188,39.4287109h-22.2167969v103.1494141H617.125z"/>
	</g>
</g>
</svg>
